<?xml version="1.0" standalone="no"?>
<!DOCTYPE svg PUBLIC "-//W3C//DTD SVG 20010904//EN"
 "http://www.w3.org/TR/2001/REC-SVG-20010904/DTD/svg10.dtd">
<svg version="1.0" xmlns="http://www.w3.org/2000/svg"
 width="700.000000pt" height="700.000000pt" viewBox="0 0 700.000000 700.000000"
 preserveAspectRatio="xMidYMid meet">
<metadata>
Created by potrace 1.14, written by Peter Selinger 2001-2017
</metadata>
<g transform="translate(0.000000,700.000000) scale(0.100000,-0.100000)"
fill="#000000" stroke="none">
<path d="M2242 6626 c-20 -5 -60 -36 -99 -75 -208 -209 -276 -392 -269 -719 3
-159 5 -174 31 -254 28 -84 168 -366 233 -468 55 -85 86 -282 63 -390 -19 -87
-68 -178 -132 -242 -63 -63 -79 -105 -62 -162 l10 -31 -591 0 -590 0 -28 -100
c-15 -55 -30 -113 -32 -130 -3 -16 -10 -55 -16 -85 -30 -157 -43 -297 -43
-490 0 -105 10 -320 18 -359 1 -9 6 -41 10 -71 9 -68 8 -61 39 -200 47 -207
107 -374 209 -580 180 -364 439 -672 782 -930 44 -33 188 -129 201 -134 1 -1
5 -29 8 -64 20 -193 142 -341 326 -396 46 -14 171 -16 1004 -15 891 0 955 1
1008 18 187 60 313 225 317 413 1 35 5 40 84 92 280 185 507 402 697 666 29
41 56 78 60 83 3 4 31 2 61 -4 120 -24 300 -10 418 32 346 125 566 443 556
806 -8 286 -148 532 -390 684 -46 29 -147 74 -188 84 -15 4 -29 10 -31 14 -2
3 -7 42 -10 86 -10 128 -22 207 -50 352 -11 52 -49 199 -56 213 -7 13 -93 15
-687 15 l-679 0 49 60 c108 134 166 309 161 484 -5 178 -52 348 -124 451 -38
54 -169 319 -191 385 -16 51 -23 96 -23 165 -3 237 38 361 167 498 96 102 99
106 104 152 6 49 -28 114 -71 135 -46 23 -107 19 -147 -10 -141 -104 -278
-322 -308 -490 -39 -219 -33 -393 18 -553 27 -83 169 -366 223 -444 45 -65 72
-183 71 -313 0 -132 -40 -228 -137 -327 -60 -62 -71 -88 -63 -151 l6 -42 -404
0 -403 0 19 25 c64 82 84 111 109 160 30 60 65 170 75 235 7 44 7 178 1 210
-2 11 -7 43 -11 70 -12 86 -55 206 -100 280 -80 132 -194 369 -210 435 -31
134 -7 377 47 484 24 47 103 150 145 186 42 38 54 56 63 95 19 83 -45 165
-128 165 -24 0 -55 -6 -70 -14 -29 -15 -137 -125 -190 -194 -43 -55 -105 -178
-118 -234 -2 -10 -6 -28 -10 -40 -30 -124 -40 -386 -17 -482 19 -82 49 -168
88 -246 51 -103 125 -241 155 -290 64 -102 96 -271 76 -399 -15 -90 -55 -169
-127 -245 -60 -65 -84 -113 -73 -151 3 -11 7 -27 10 -35 3 -13 -44 -15 -394
-15 -218 0 -399 2 -402 5 -3 3 11 26 31 50 143 176 195 398 150 645 -23 120
-55 208 -108 295 -55 90 -145 264 -170 330 -36 91 -45 140 -45 240 1 235 40
343 172 483 87 93 100 113 102 159 3 92 -89 161 -180 134z m3832 -3421 c64
-63 125 -165 146 -245 73 -273 -88 -575 -352 -664 -80 -26 -213 -42 -223 -26
-3 4 15 54 40 110 77 175 155 430 179 580 19 113 36 260 36 300 0 26 3 50 6
53 13 13 108 -49 168 -108z"/>
<path d="M1914 576 c-95 -42 -107 -177 -21 -240 l28 -21 1362 -3 c1282 -2
1364 -1 1396 15 100 51 105 185 9 243 -33 20 -53 20 -1388 20 -1115 -1 -1360
-3 -1386 -14z"/>
</g>
</svg>
