<svg width="29" height="28" viewBox="0 0 29 28" fill="none" xmlns="http://www.w3.org/2000/svg">
<mask id="mask0_2_62" style="mask-type:luminance" maskUnits="userSpaceOnUse" x="3" y="2" width="23" height="24">
<path d="M11 3.5H5.16667C4.85725 3.5 4.5605 3.62292 4.34171 3.84171C4.12292 4.0605 4 4.35725 4 4.66667V10.5C4 10.8094 4.12292 11.1062 4.34171 11.325C4.5605 11.5437 4.85725 11.6667 5.16667 11.6667H11C11.3094 11.6667 11.6062 11.5437 11.825 11.325C12.0437 11.1062 12.1667 10.8094 12.1667 10.5V4.66667C12.1667 4.35725 12.0437 4.0605 11.825 3.84171C11.6062 3.62292 11.3094 3.5 11 3.5ZM11 16.3333H5.16667C4.85725 16.3333 4.5605 16.4562 4.34171 16.675C4.12292 16.8938 4 17.1906 4 17.5V23.3333C4 23.6428 4.12292 23.9395 4.34171 24.1583C4.5605 24.3771 4.85725 24.5 5.16667 24.5H11C11.3094 24.5 11.6062 24.3771 11.825 24.1583C12.0437 23.9395 12.1667 23.6428 12.1667 23.3333V17.5C12.1667 17.1906 12.0437 16.8938 11.825 16.675C11.6062 16.4562 11.3094 16.3333 11 16.3333ZM23.8333 3.5H18C17.6906 3.5 17.3938 3.62292 17.175 3.84171C16.9562 4.0605 16.8333 4.35725 16.8333 4.66667V10.5C16.8333 10.8094 16.9562 11.1062 17.175 11.325C17.3938 11.5437 17.6906 11.6667 18 11.6667H23.8333C24.1428 11.6667 24.4395 11.5437 24.6583 11.325C24.8771 11.1062 25 10.8094 25 10.5V4.66667C25 4.35725 24.8771 4.0605 24.6583 3.84171C24.4395 3.62292 24.1428 3.5 23.8333 3.5ZM23.8333 16.3333H18C17.6906 16.3333 17.3938 16.4562 17.175 16.675C16.9562 16.8938 16.8333 17.1906 16.8333 17.5V23.3333C16.8333 23.6428 16.9562 23.9395 17.175 24.1583C17.3938 24.3771 17.6906 24.5 18 24.5H23.8333C24.1428 24.5 24.4395 24.3771 24.6583 24.1583C24.8771 23.9395 25 23.6428 25 23.3333V17.5C25 17.1906 24.8771 16.8938 24.6583 16.675C24.4395 16.4562 24.1428 16.3333 23.8333 16.3333Z" stroke="white" stroke-width="2" stroke-linejoin="round"/>
</mask>
<g mask="url(#mask0_2_62)">
<path d="M0.5 0H28.5V28H0.5V0Z" fill="black"/>
</g>
</svg>
