<svg width="29" height="28" viewBox="0 0 29 28" fill="none" xmlns="http://www.w3.org/2000/svg">
<mask id="mask0_2_68" style="mask-type:luminance" maskUnits="userSpaceOnUse" x="1" y="2" width="27" height="24">
<path d="M2.25 3.5H4.29167L5.16667 7M5.16667 7L8.08333 18.6667H23.25L26.1667 7H5.16667Z" stroke="white" stroke-width="2" stroke-linecap="round" stroke-linejoin="round"/>
<path d="M8.08334 24.5C9.04983 24.5 9.83334 23.7165 9.83334 22.75C9.83334 21.7835 9.04983 21 8.08334 21C7.11684 21 6.33334 21.7835 6.33334 22.75C6.33334 23.7165 7.11684 24.5 8.08334 24.5Z" stroke="white" stroke-width="2" stroke-linecap="round" stroke-linejoin="round"/>
<path d="M23.25 24.5C24.2165 24.5 25 23.7165 25 22.75C25 21.7835 24.2165 21 23.25 21C22.2835 21 21.5 21.7835 21.5 22.75C21.5 23.7165 22.2835 24.5 23.25 24.5Z" stroke="white" stroke-width="2" stroke-linecap="round" stroke-linejoin="round"/>
</mask>
<g mask="url(#mask0_2_68)">
<path d="M0.5 0H28.5V28H0.5V0Z" fill="black"/>
</g>
</svg>
