<svg width="18" height="28" viewBox="0 0 18 22" fill="none" xmlns="http://www.w3.org/2000/svg">
<path d="M15.0668 0.928004H2.92318C2.79414 0.927716 2.6691 0.962117 2.57007 1.02515C2.47104 1.08819 2.40437 1.17582 2.38179 1.27262L1.65536 3.52826C1.6342 3.59299 1.63368 3.66063 1.65387 3.72554C1.67405 3.79045 1.71435 3.85074 1.77139 3.90135C1.82842 3.95196 1.90053 3.99143 1.98169 4.01645C2.06285 4.04147 2.15069 4.05132 2.23787 4.04518H15.807C15.8929 4.04492 15.9775 4.02929 16.054 3.99954C16.1305 3.96979 16.1968 3.92676 16.2475 3.87392C16.2981 3.82108 16.3318 3.75991 16.3458 3.69533C16.3597 3.63075 16.3536 3.56458 16.3278 3.50215L15.6014 1.24651L15.0668 1.34572L15.6014 1.24129C15.5703 1.14938 15.4991 1.06828 15.3994 1.01134C15.2998 0.954394 15.1776 0.925003 15.0531 0.928004H15.0668ZM3.34807 1.76343H14.6557L15.1217 3.21497H2.88892L3.36178 1.76343H3.34807Z" fill="black"/>
<path d="M1.33327 5.84658C1.32146 5.73579 1.36789 5.62597 1.46235 5.54127C1.55681 5.45657 1.69157 5.40393 1.83697 5.39493C1.98238 5.38593 2.12652 5.4213 2.23769 5.49327C2.34886 5.56525 2.41795 5.66792 2.42976 5.7787L3.81408 19.2603C3.83614 19.5283 3.98178 19.7816 4.22527 19.9757C4.33455 20.0596 4.46489 20.126 4.60851 20.1709C4.75214 20.2157 4.90613 20.2381 5.06135 20.2367H12.9424C13.0953 20.2367 13.2467 20.2137 13.3878 20.1689C13.529 20.1241 13.6571 20.0584 13.7648 19.9757C14.0107 19.7824 14.1589 19.5289 14.1828 19.2603L15.574 5.7787C15.5849 5.66792 15.6531 5.56497 15.7636 5.49251C15.8741 5.42005 16.0179 5.38401 16.1633 5.39232C16.3087 5.40063 16.4438 5.4526 16.539 5.53681C16.6341 5.62103 16.6814 5.73057 16.6705 5.84136L15.2793 19.323C15.2362 19.7904 14.9763 20.2309 14.546 20.5657C14.1348 20.879 13.5729 21.0722 12.9424 21.0722H5.06135C4.76327 21.0732 4.46791 21.029 4.19255 20.942C3.91719 20.8551 3.66738 20.7271 3.45772 20.5657C3.03969 20.2524 2.77242 19.8086 2.72445 19.323L1.33327 5.84658Z" fill="black"/>
<path d="M15.807 8.23273C15.9524 8.23273 16.0918 8.27674 16.1946 8.35507C16.2975 8.43341 16.3552 8.53966 16.3552 8.65044C16.3552 8.76122 16.2975 8.86747 16.1946 8.9458C16.0918 9.02414 15.9524 9.06815 15.807 9.06815H2.19677C2.05136 9.06815 1.91191 9.02414 1.8091 8.9458C1.70628 8.86747 1.64852 8.76122 1.64852 8.65044C1.64852 8.53966 1.70628 8.43341 1.8091 8.35507C1.91191 8.27674 2.05136 8.23273 2.19677 8.23273H15.807Z" fill="black"/>
<path d="M3.04654 17.4694C2.90113 17.4694 2.76168 17.4254 2.65887 17.3471C2.55605 17.2687 2.49829 17.1625 2.49829 17.0517C2.49829 16.9409 2.55605 16.8347 2.65887 16.7563C2.76168 16.678 2.90113 16.634 3.04654 16.634H14.9572C15.1026 16.634 15.242 16.678 15.3449 16.7563C15.4477 16.8347 15.5054 16.9409 15.5054 17.0517C15.5054 17.1625 15.4477 17.2687 15.3449 17.3471C15.242 17.4254 15.1026 17.4694 14.9572 17.4694H3.04654Z" fill="black"/>
<path d="M16.7321 3.20975H1.25789C1.12668 3.20843 0.999199 3.243 0.898598 3.30719C0.797998 3.37138 0.730953 3.46094 0.709641 3.55959L0.024334 5.7108C0.00299835 5.77362 -0.00568771 5.83937 0.0121326 5.90283C0.0299511 5.96629 0.0669327 6.02571 0.12014 6.07638C0.173347 6.12706 0.241316 6.16759 0.318663 6.19476C0.396008 6.22194 0.480598 6.23501 0.565727 6.23294H17.4517C17.5384 6.23294 17.6239 6.21729 17.7011 6.18725C17.7783 6.15721 17.845 6.11365 17.8959 6.06015C17.9467 6.00664 17.9802 5.94471 17.9935 5.87945C18.0068 5.81418 17.9996 5.74744 17.9725 5.68469L17.2735 3.52826C17.2427 3.43724 17.1725 3.35681 17.0743 3.29996C16.976 3.24311 16.8555 3.20795 16.7321 3.20975ZM1.68278 4.04518H16.3141L16.7527 5.3923H1.25103L1.68278 4.04518Z" fill="black"/>
<path d="M9.00186 9.93494C8.58547 9.94518 8.17882 10.0334 7.81784 10.1919C7.45687 10.3504 7.1527 10.5741 6.93223 10.8435C6.45937 11.3656 6.16469 12.0757 6.16469 12.8537C6.15049 13.5656 6.41795 14.2643 6.93223 14.8587C7.1519 15.129 7.45572 15.3538 7.81674 15.5132C8.17777 15.6726 8.58484 15.7616 9.00186 15.7725C9.4177 15.7608 9.82339 15.6714 10.1831 15.512C10.5429 15.3526 10.8456 15.1283 11.0646 14.8587C11.5789 14.2643 11.8464 13.5656 11.8322 12.8537C11.8322 12.0705 11.5375 11.3656 11.0646 10.8435C10.8448 10.5749 10.5417 10.3515 10.182 10.1931C9.82234 10.0347 9.41707 9.94603 9.00186 9.93494ZM7.83684 11.3186C8.14523 10.9792 8.55641 10.7704 9.00186 10.7704C9.44046 10.7704 9.85164 10.9792 10.1669 11.3186C10.5547 11.7751 10.7529 12.3101 10.7357 12.8537C10.7357 13.4542 10.5164 13.9972 10.1669 14.3836C9.85164 14.723 9.44046 14.937 9.00186 14.937C8.55641 14.937 8.14523 14.7282 7.83684 14.3836C7.44792 13.9291 7.24734 13.3961 7.26118 12.8537C7.24596 12.3095 7.44659 11.7745 7.83684 11.3186Z" fill="black"/>
</svg>
